# xmcd CD database file
#
# Track frame offsets:
#	150
#	5182
#	47239
#	48091
#	62034
#	63283
#	92164
#	92922
#	105587
#	106851
#	132878
#	136556
#	176845
#	179191
#	225190
#	280591
#	283001
#	329686
#	331926
#	339582
#
# Disc length: 4700 seconds
#
# Revision: 0
# Processed by: cddbd v1.5.2PL0 Copyright (c) Steve Scherf et al.
# Submitted via: CDex 1.70beta2
#
DISCID=20125a14
DTITLE=Les Paul - The Jazzman
DYEAR=1900
DGENRE=Jazz
TTITLE0=Announcement
TTITLE1=I found a new baby
TTITLE2=Announcement
TTITLE3=Sweet Lorraine
TTITLE4=Announcement
TTITLE5=Rosetta
TTITLE6=Announcement
TTITLE7=The man  love
TTITLE8=Announcement
TTITLE9=Bugle call rag
TTITLE10=Announcement
TTITLE11=Lester leaps in
TTITLE12=Announcement
TTITLE13=Body and soul
TTITLE14=Tea for two
TTITLE15=Announcement
TTITLE16=Blues
TTITLE17=It must be true/Les Paul speaks
TTITLE18=How high the moon
TTITLE19=Begin the beguine
EXTD=
EXTT0=
EXTT1=
EXTT2=
EXTT3=
EXTT4=
EXTT5=
EXTT6=
EXTT7=
EXTT8=
EXTT9=
EXTT10=
EXTT11=
EXTT12=
EXTT13=
EXTT14=
EXTT15=
EXTT16=
EXTT17=
EXTT18=
EXTT19=
PLAYORDER=
